<svg xmlns="http://www.w3.org/2000/svg" width="1040" height="1644" viewBox="0 0 1040 1644"
    version="1.1">
    <path
        d="M 808 21.134 C 782.425 21.564, 708.625 22.397, 644 22.986 C 579.375 23.575, 466.650 24.695, 393.500 25.475 C 320.350 26.255, 234.850 27.150, 203.500 27.463 C 172.150 27.776, 126.475 28.274, 102 28.571 C 73.264 28.919, 56.437 29.502, 54.500 30.217 C 52.850 30.825, 50.433 32.263, 49.129 33.412 C 47.826 34.560, 45.866 37.525, 44.776 40 C 42.811 44.457, 42.803 45.830, 43.907 184.500 C 44.520 261.500, 45.263 347.675, 45.558 376 C 45.852 404.325, 46.504 475.425, 47.005 534 C 47.506 592.575, 48.365 696.075, 48.913 764 C 49.461 831.925, 50.816 988.750, 51.924 1112.500 C 53.031 1236.250, 54.129 1364.050, 54.363 1396.500 C 54.664 1438.307, 55.136 1456.637, 55.983 1459.403 C 56.640 1461.549, 59.051 1465.285, 61.339 1467.704 C 64.168 1470.695, 66.780 1472.398, 69.500 1473.025 C 71.700 1473.533, 77.775 1474.638, 83 1475.483 C 88.225 1476.327, 94.750 1477.446, 97.500 1477.970 C 100.250 1478.494, 104.075 1479.188, 106 1479.512 C 107.925 1479.836, 118.725 1481.681, 130 1483.612 C 141.275 1485.544, 152.075 1487.338, 154 1487.600 C 155.925 1487.862, 159.750 1488.482, 162.500 1488.978 C 165.250 1489.474, 169.975 1490.352, 173 1490.929 C 176.025 1491.506, 182.775 1492.686, 188 1493.551 C 193.225 1494.416, 199.975 1495.521, 203 1496.006 C 206.025 1496.491, 217.950 1498.511, 229.500 1500.494 C 241.050 1502.477, 252.975 1504.504, 256 1504.997 C 259.025 1505.490, 266.900 1506.842, 273.500 1508 C 280.100 1509.158, 287.975 1510.509, 291 1511.001 C 294.025 1511.493, 303.250 1513.072, 311.500 1514.508 C 319.750 1515.945, 329.200 1517.561, 332.500 1518.100 C 335.800 1518.639, 340.975 1519.511, 344 1520.037 C 347.025 1520.564, 352.200 1521.414, 355.500 1521.927 C 358.800 1522.440, 368.250 1524.034, 376.500 1525.471 C 384.750 1526.907, 396.675 1528.986, 403 1530.092 C 409.325 1531.197, 417.200 1532.544, 420.500 1533.086 C 423.800 1533.627, 429.200 1534.521, 432.500 1535.071 C 435.800 1535.621, 440.975 1536.482, 444 1536.985 C 447.025 1537.488, 452.200 1538.395, 455.500 1539 C 458.800 1539.605, 463.975 1540.494, 467 1540.975 C 470.025 1541.457, 484.650 1543.937, 499.500 1546.486 C 514.350 1549.036, 529.087 1551.544, 532.250 1552.061 C 535.413 1552.577, 540.813 1553.466, 544.250 1554.035 C 547.688 1554.605, 552.975 1555.490, 556 1556.002 C 559.025 1556.514, 568.250 1558.099, 576.500 1559.525 C 584.750 1560.951, 593.975 1562.518, 597 1563.009 C 600.025 1563.499, 605.200 1564.395, 608.500 1565 C 611.800 1565.605, 616.975 1566.499, 620 1566.988 C 623.025 1567.476, 629.775 1568.584, 635 1569.449 C 640.225 1570.314, 646.750 1571.475, 649.500 1572.029 C 652.250 1572.582, 657.200 1573.446, 660.500 1573.947 C 663.800 1574.449, 674.600 1576.270, 684.500 1577.994 C 694.400 1579.718, 705.200 1581.568, 708.500 1582.104 C 711.800 1582.641, 716.975 1583.511, 720 1584.037 C 723.025 1584.564, 728.200 1585.420, 731.500 1585.939 C 734.800 1586.458, 739.975 1587.333, 743 1587.884 C 746.025 1588.434, 757.725 1590.458, 769 1592.381 C 780.275 1594.304, 791.075 1596.151, 793 1596.485 C 794.925 1596.819, 799.200 1597.542, 802.500 1598.092 C 805.800 1598.642, 810.750 1599.516, 813.500 1600.035 C 816.250 1600.553, 822.775 1601.680, 828 1602.539 C 833.225 1603.397, 841.775 1604.803, 847 1605.662 C 852.225 1606.522, 858.750 1607.626, 861.500 1608.115 C 864.250 1608.605, 869.521 1609.289, 873.213 1609.635 C 878.541 1610.134, 880.706 1609.894, 883.713 1608.471 C 885.796 1607.485, 888.766 1605.745, 890.314 1604.604 C 891.861 1603.463, 894.111 1600.948, 895.314 1599.015 C 897.324 1595.782, 897.540 1593.857, 898 1575.043 C 898.500 1554.585, 898.500 1554.585, 906 1550.148 C 910.125 1547.708, 915.300 1544.727, 917.500 1543.524 C 919.700 1542.321, 923.188 1540.361, 925.250 1539.168 C 927.313 1537.976, 930.688 1536.036, 932.750 1534.859 C 934.813 1533.681, 938.300 1531.702, 940.500 1530.462 C 942.700 1529.221, 948.550 1525.852, 953.500 1522.974 C 958.450 1520.096, 964.525 1516.600, 967 1515.206 C 969.475 1513.812, 972.962 1511.845, 974.750 1510.835 C 976.538 1509.826, 979.672 1508.053, 981.716 1506.896 C 983.760 1505.738, 985.996 1504.051, 986.684 1503.146 C 987.373 1502.241, 989.277 1498.800, 990.915 1495.500 C 992.553 1492.200, 994.545 1486.800, 995.343 1483.500 C 996.140 1480.200, 997.089 1470.075, 997.451 1461 C 997.813 1451.925, 998.540 1419.525, 999.065 1389 C 999.591 1358.475, 1000.437 1309.650, 1000.946 1280.500 C 1001.455 1251.350, 1002.121 1218.050, 1002.425 1206.500 C 1002.729 1194.950, 1003.450 1152.650, 1004.026 1112.500 C 1004.603 1072.350, 1005.272 1030.275, 1005.513 1019 C 1005.754 1007.725, 1006.404 971.275, 1006.955 938 C 1007.507 904.725, 1008.208 865.575, 1008.513 851 C 1008.818 836.425, 1009.530 795.925, 1010.096 761 C 1010.662 726.075, 1011.534 675, 1012.033 647.500 C 1012.533 620, 1013.418 572.750, 1014 542.500 C 1014.582 512.250, 1015.470 465, 1015.972 437.500 C 1016.475 410, 1017.356 360.275, 1017.931 327 C 1018.506 293.725, 1019.443 239.050, 1020.015 205.500 C 1020.586 171.950, 1021.331 132.647, 1021.670 118.159 C 1022.131 98.449, 1021.956 90.017, 1020.975 84.659 C 1020.253 80.722, 1018.682 75.234, 1017.482 72.465 C 1016.282 69.696, 1013.848 66.209, 1012.073 64.715 C 1010.298 63.221, 1007.868 61.796, 1006.673 61.547 C 1005.478 61.298, 1000.225 60.877, 995 60.611 C 989.775 60.346, 974.925 59.619, 962 58.995 C 949.075 58.372, 934.675 57.556, 930 57.181 C 921.500 56.500, 921.500 56.500, 920.975 46 C 920.606 38.623, 919.892 34.362, 918.574 31.672 C 917.542 29.567, 915.224 26.668, 913.422 25.230 C 911.620 23.793, 908.200 22.034, 905.823 21.323 C 902.744 20.402, 894.737 20.077, 878 20.191 C 865.075 20.280, 833.575 20.704, 808 21.134 M 751 29.136 C 732.575 29.486, 680.375 30.069, 635 30.432 C 589.625 30.794, 537.650 31.269, 519.500 31.486 C 501.350 31.704, 459.275 32.145, 426 32.467 C 392.725 32.790, 326.800 33.478, 279.500 33.998 C 232.200 34.517, 164.025 35.192, 128 35.499 C 91.975 35.805, 61.020 36.322, 59.210 36.647 C 57.115 37.023, 55.027 38.409, 53.460 40.463 C 51 43.689, 51 43.689, 51.021 113.094 C 51.032 151.267, 51.456 222.550, 51.963 271.500 C 52.470 320.450, 53.364 423.275, 53.950 500 C 54.536 576.725, 55.456 680.900, 55.995 731.500 C 56.535 782.100, 57.668 912.150, 58.513 1020.500 C 59.358 1128.850, 60.271 1235.725, 60.541 1258 C 60.812 1280.275, 61.312 1333.825, 61.653 1377 C 62.230 1449.958, 62.401 1455.754, 64.079 1459.097 C 65.072 1461.076, 67.082 1463.479, 68.545 1464.438 C 70.009 1465.397, 73.747 1466.568, 76.853 1467.041 C 79.959 1467.513, 85.200 1468.395, 88.500 1469 C 91.800 1469.605, 97.200 1470.545, 100.500 1471.090 C 103.800 1471.634, 108.750 1472.475, 111.500 1472.959 C 114.250 1473.443, 119.425 1474.312, 123 1474.891 C 126.575 1475.470, 136.025 1477.076, 144 1478.461 C 151.975 1479.846, 162.775 1481.663, 168 1482.498 C 173.225 1483.334, 179.750 1484.443, 182.500 1484.963 C 185.250 1485.483, 190.313 1486.379, 193.750 1486.954 C 197.188 1487.529, 202.588 1488.429, 205.750 1488.954 C 208.913 1489.479, 213.075 1490.178, 215 1490.508 C 216.925 1490.838, 227.500 1492.632, 238.500 1494.494 C 249.500 1496.356, 260.075 1498.149, 262 1498.479 C 263.925 1498.808, 267.750 1499.505, 270.500 1500.028 C 273.250 1500.550, 279.775 1501.686, 285 1502.551 C 290.225 1503.416, 296.975 1504.512, 300 1504.986 C 303.025 1505.460, 317.650 1507.931, 332.500 1510.477 C 347.350 1513.023, 362.200 1515.569, 365.500 1516.134 C 368.800 1516.699, 373.750 1517.557, 376.500 1518.041 C 379.250 1518.524, 384.200 1519.357, 387.500 1519.892 C 390.800 1520.426, 405.650 1522.938, 420.500 1525.475 C 435.350 1528.011, 452.675 1531.013, 459 1532.145 C 465.325 1533.278, 471.850 1534.414, 473.500 1534.670 C 475.150 1534.926, 488.650 1537.138, 503.500 1539.584 C 518.350 1542.030, 531.625 1544.278, 533 1544.579 C 534.375 1544.879, 537.975 1545.519, 541 1545.999 C 544.025 1546.479, 549.200 1547.374, 552.500 1547.986 C 555.800 1548.599, 561.200 1549.543, 564.500 1550.085 C 567.800 1550.627, 572.975 1551.477, 576 1551.974 C 579.025 1552.471, 590.725 1554.456, 602 1556.384 C 613.275 1558.312, 624.075 1560.160, 626 1560.491 C 627.925 1560.821, 632.200 1561.542, 635.500 1562.092 C 638.800 1562.642, 643.750 1563.507, 646.500 1564.014 C 649.250 1564.522, 654.425 1565.401, 658 1565.969 C 661.575 1566.538, 671.025 1568.123, 679 1569.492 C 686.975 1570.861, 695.975 1572.427, 699 1572.972 C 702.025 1573.517, 708.775 1574.674, 714 1575.544 C 719.225 1576.413, 725.975 1577.520, 729 1578.003 C 732.025 1578.487, 745.075 1580.689, 758 1582.898 C 770.925 1585.107, 788.250 1588.086, 796.500 1589.519 C 804.750 1590.952, 813.975 1592.519, 817 1593.001 C 820.025 1593.484, 834.635 1595.945, 849.466 1598.471 C 872.215 1602.346, 876.881 1602.878, 879.303 1601.875 C 880.882 1601.221, 883.292 1598.913, 884.660 1596.746 C 887.147 1592.807, 887.147 1592.807, 888.088 1522.654 C 888.606 1484.069, 889.240 1438.100, 889.498 1420.500 C 889.756 1402.900, 890.430 1355.875, 890.995 1316 C 891.561 1276.125, 892.265 1229.550, 892.560 1212.500 C 892.855 1195.450, 893.523 1151.350, 894.045 1114.500 C 894.566 1077.650, 895.419 1016.900, 895.939 979.500 C 896.459 942.100, 897.144 895.300, 897.462 875.500 C 897.779 855.700, 898.471 811.600, 898.999 777.500 C 899.527 743.400, 900.210 698.625, 900.516 678 C 900.822 657.375, 901.264 628.350, 901.498 613.500 C 901.732 598.650, 902.179 566.475, 902.491 542 C 902.803 517.525, 903.499 467.350, 904.038 430.500 C 904.576 393.650, 905.451 335.825, 905.982 302 C 906.513 268.175, 907.229 223.400, 907.573 202.500 C 907.918 181.600, 908.551 137.050, 908.981 103.500 C 909.411 69.950, 910.075 41.556, 910.458 40.403 C 910.980 38.828, 910.324 37.435, 907.827 34.815 C 905.997 32.895, 903.240 30.510, 901.701 29.515 C 899.063 27.810, 895.583 27.728, 841.701 28.103 C 810.240 28.321, 769.425 28.786, 751 29.136 M 921 66.315 C 921 67.346, 922.149 68.084, 924.250 68.403 C 926.038 68.675, 935.825 69.204, 946 69.579 C 956.175 69.954, 967.425 70.400, 971 70.569 C 974.575 70.739, 983.125 71.093, 990 71.355 C 996.875 71.617, 1003.238 72.123, 1004.139 72.480 C 1005.246 72.918, 1005.594 73.839, 1005.209 75.315 C 1004.895 76.517, 1004.045 78.094, 1003.320 78.821 C 1002.595 79.547, 1000.912 82.022, 999.579 84.321 C 998.247 86.619, 996.485 90.975, 995.663 94 C 994.842 97.025, 993.696 104.450, 993.117 110.500 C 992.537 116.550, 991.814 135.450, 991.509 152.500 C 991.204 169.550, 990.749 192.050, 990.497 202.500 C 990.246 212.950, 989.779 240.850, 989.460 264.500 C 989.142 288.150, 988.445 333.825, 987.912 366 C 987.379 398.175, 986.510 448.800, 985.981 478.500 C 985.451 508.200, 984.568 557.700, 984.017 588.500 C 983.467 619.300, 982.586 669.700, 982.059 700.500 C 981.533 731.300, 980.831 769.325, 980.500 785 C 980.168 800.675, 979.443 844.550, 978.890 882.500 C 978.336 920.450, 977.475 976.250, 976.976 1006.500 C 976.477 1036.750, 975.839 1074.325, 975.557 1090 C 975.275 1105.675, 974.778 1133.800, 974.453 1152.500 C 974.127 1171.200, 973.449 1212.375, 972.947 1244 C 972.444 1275.625, 971.487 1329.850, 970.818 1364.500 C 970.150 1399.150, 969.600 1434.475, 969.595 1443 C 969.591 1451.525, 969.973 1462.453, 970.444 1467.284 C 970.916 1472.116, 971.684 1476.305, 972.151 1476.593 C 972.618 1476.882, 973 1477.976, 973 1479.024 C 973 1480.072, 974.201 1483.083, 975.669 1485.715 C 977.137 1488.347, 979.105 1491.762, 980.041 1493.304 C 981.478 1495.669, 981.846 1495.843, 982.395 1494.413 C 982.753 1493.481, 982.360 1491.672, 981.523 1490.394 C 980.685 1489.116, 979.993 1487.267, 979.985 1486.285 C 979.977 1485.303, 979.190 1482.475, 978.235 1480 C 976.703 1476.026, 976.524 1471.816, 976.701 1444 C 976.812 1426.675, 977.401 1383.475, 978.011 1348 C 978.620 1312.525, 979.541 1259.650, 980.057 1230.500 C 980.574 1201.350, 981.448 1148.700, 982.001 1113.500 C 982.554 1078.300, 983.459 1024.300, 984.012 993.500 C 984.566 962.700, 985.460 913.425, 985.999 884 C 986.538 854.575, 987.418 805.750, 987.954 775.500 C 988.490 745.250, 989.176 707.675, 989.477 692 C 989.779 676.325, 990.690 621.650, 991.502 570.500 C 992.314 519.350, 993.215 465.350, 993.503 450.500 C 993.792 435.650, 994.459 397.400, 994.984 365.500 C 995.510 333.600, 996.175 292.650, 996.462 274.500 C 996.749 256.350, 997.252 227.775, 997.579 211 C 997.906 194.225, 998.574 162.725, 999.063 141 C 999.552 119.275, 1000.329 98.575, 1000.788 95 C 1001.248 91.425, 1002.401 86.716, 1003.350 84.537 C 1004.299 82.357, 1005.671 79.882, 1006.397 79.037 C 1007.124 78.191, 1007.969 76.470, 1008.276 75.211 C 1008.646 73.691, 1008.178 72.312, 1006.881 71.103 C 1005.291 69.622, 1002.476 69.158, 991.714 68.601 C 984.446 68.224, 970.850 67.501, 961.500 66.993 C 952.150 66.485, 939.212 65.766, 932.750 65.395 C 922.382 64.800, 921 64.909, 921 66.315 M 928.238 74.300 C 927.128 75.510, 925.110 78.750, 923.752 81.500 C 921.723 85.609, 921.163 88.638, 920.608 98.500 C 920.237 105.100, 919.509 143.350, 918.991 183.500 C 918.472 223.650, 917.818 269.100, 917.538 284.500 C 917.258 299.900, 916.569 345.125, 916.009 385 C 915.448 424.875, 914.755 471.900, 914.469 489.500 C 914.182 507.100, 913.501 549.850, 912.956 584.500 C 912.411 619.150, 911.730 673.150, 911.443 704.500 C 911.130 738.736, 911.284 760.901, 911.828 760 C 912.326 759.175, 913.025 736.225, 913.381 709 C 913.737 681.775, 914.469 632.950, 915.006 600.500 C 915.544 568.050, 916.197 526.425, 916.458 508 C 916.720 489.575, 917.171 453.800, 917.461 428.500 C 917.751 403.200, 918.224 373.725, 918.513 363 C 918.802 352.275, 919.269 324.600, 919.551 301.500 C 919.833 278.400, 920.497 236.100, 921.027 207.500 C 921.556 178.900, 921.991 146.307, 921.995 135.071 C 921.998 123.835, 922.418 113.260, 922.928 111.571 C 923.439 109.882, 924.379 104.900, 925.016 100.500 C 925.654 96.100, 926.586 92.073, 927.088 91.550 C 927.590 91.028, 928 90.010, 928 89.289 C 928 88.568, 928.974 85.846, 930.165 83.239 C 931.355 80.633, 932.890 77.825, 933.575 77 C 934.600 75.765, 934.417 75.200, 932.538 73.800 C 930.359 72.176, 930.164 72.199, 928.238 74.300 M 938.321 77.776 C 936.573 80.374, 933.691 86.100, 931.917 90.500 C 930.143 94.900, 928.299 100.750, 927.819 103.500 C 927.339 106.250, 926.321 117.725, 925.557 129 C 924.719 141.364, 923.524 195.139, 922.545 264.500 C 921.653 327.750, 920.730 390.750, 920.494 404.500 C 920.258 418.250, 919.605 461, 919.041 499.500 C 918.478 538, 917.802 582.325, 917.540 598 C 917.277 613.675, 916.539 658.740, 915.900 698.145 C 914.738 769.790, 914.738 769.790, 917.340 780.145 C 918.772 785.840, 920.465 793.875, 921.104 798 C 921.742 802.125, 922.599 807.300, 923.007 809.500 C 923.415 811.700, 923.799 797.300, 923.859 777.500 C 923.919 757.700, 924.420 723.050, 924.972 700.500 C 925.524 677.950, 926.448 624.175, 927.025 581 C 927.602 537.825, 928.724 462.675, 929.517 414 C 930.311 365.325, 931.204 310.875, 931.501 293 C 931.799 275.125, 932.495 229, 933.047 190.500 C 933.600 152, 934.283 118.025, 934.565 115 C 934.847 111.975, 935.508 107.925, 936.034 106 C 936.559 104.075, 936.991 101.059, 936.994 99.297 C 936.997 97.535, 937.506 94.835, 938.125 93.297 C 938.743 91.759, 939.579 89.600, 939.983 88.500 C 940.386 87.400, 941.603 84.689, 942.687 82.476 C 943.771 80.262, 945.462 77.225, 946.444 75.726 C 948.230 73, 948.230 73, 944.865 73.026 C 941.980 73.048, 941.046 73.726, 938.321 77.776 M 950.795 77.750 C 948.938 80.362, 946.875 83.737, 946.210 85.250 C 945.544 86.763, 944.610 89.013, 944.134 90.250 C 943.657 91.487, 942.791 93.625, 942.209 95 C 941.627 96.375, 940.868 98.850, 940.522 100.500 C 940.176 102.150, 939.453 105.525, 938.916 108 C 938.379 110.475, 937.538 117.225, 937.046 123 C 936.555 128.775, 935.883 153.300, 935.552 177.500 C 935.222 201.700, 934.526 248.950, 934.007 282.500 C 933.487 316.050, 932.813 363.300, 932.509 387.500 C 932.205 411.700, 931.529 446.800, 931.007 465.500 C 930.484 484.200, 930.025 521.062, 929.986 547.415 C 929.946 573.768, 929.696 595.684, 929.429 596.116 C 929.161 596.548, 928.495 628.761, 927.948 667.701 C 927.401 706.640, 926.546 767.075, 926.050 802 C 925.553 836.925, 924.837 880.246, 924.460 898.270 C 923.947 922.784, 924.075 931.768, 924.971 933.929 C 925.870 936.101, 925.886 937.345, 925.033 938.938 C 924.240 940.421, 923.462 970.541, 922.443 1039.279 C 921.642 1093.300, 920.543 1161.350, 920.002 1190.500 C 919.460 1219.650, 918.494 1278.600, 917.855 1321.500 C 917.216 1364.400, 916.649 1417.950, 916.596 1440.500 C 916.525 1471.062, 916.846 1483.409, 917.859 1489 C 918.606 1493.125, 919.873 1498.750, 920.674 1501.500 C 921.475 1504.250, 923.460 1509.200, 925.085 1512.500 C 926.710 1515.800, 928.654 1519.303, 929.405 1520.284 C 930.706 1521.984, 930.952 1521.964, 934.635 1519.853 C 936.761 1518.635, 938.725 1517.455, 939 1517.230 C 939.275 1517.005, 938.316 1515.849, 936.869 1514.660 C 935.423 1513.472, 933.517 1511.073, 932.634 1509.328 C 931.751 1507.583, 930.325 1503.983, 929.464 1501.328 C 928.603 1498.673, 927.498 1495.600, 927.009 1494.500 C 926.519 1493.400, 925.807 1489.350, 925.428 1485.500 C 925.049 1481.650, 924.692 1470.850, 924.636 1461.500 C 924.580 1452.150, 924.863 1427.400, 925.263 1406.500 C 925.664 1385.600, 926.224 1352.525, 926.509 1333 C 926.793 1313.475, 927.902 1242.600, 928.973 1175.500 C 930.044 1108.400, 931.168 1038.650, 931.472 1020.500 C 931.775 1002.350, 932.238 970.175, 932.500 949 C 932.762 927.825, 933.209 900.150, 933.492 887.500 C 933.775 874.850, 934.230 848.075, 934.503 828 C 934.776 807.925, 935.232 780.025, 935.517 766 C 935.802 751.975, 936.263 723.175, 936.540 702 C 936.818 680.825, 937.270 650.675, 937.544 635 C 937.819 619.325, 938.477 578.600, 939.006 544.500 C 939.536 510.400, 940.406 452.575, 940.941 416 C 941.475 379.425, 942.394 321.375, 942.983 287 C 943.572 252.625, 944.498 200.650, 945.042 171.500 C 945.585 142.350, 946.216 117.150, 946.442 115.500 C 946.669 113.850, 947.145 109.350, 947.501 105.500 C 947.858 101.650, 948.611 97.150, 949.175 95.500 C 949.740 93.850, 950.659 91.375, 951.218 90 C 951.776 88.625, 952.631 86.719, 953.117 85.764 C 953.603 84.809, 954 83.442, 954 82.726 C 954 82.010, 955.332 79.866, 956.959 77.962 C 958.587 76.058, 959.937 74.162, 959.959 73.750 C 959.982 73.338, 958.688 73, 957.085 73 C 954.748 73, 953.501 73.942, 950.795 77.750 M 962.144 78.541 C 959.865 81.589, 958 84.520, 958 85.055 C 958 85.590, 957.588 86.809, 957.084 87.764 C 956.580 88.719, 955.373 91.300, 954.402 93.500 C 953.430 95.700, 952.256 99.525, 951.793 102 C 951.330 104.475, 950.297 111.450, 949.498 117.500 C 948.534 124.796, 947.859 142.472, 947.493 170 C 947.190 192.825, 946.531 226.350, 946.029 244.500 C 945.527 262.650, 945.060 293.700, 944.992 313.500 C 944.924 333.300, 944.686 357.150, 944.463 366.500 C 944.240 375.850, 943.595 412.075, 943.028 447 C 942.461 481.925, 941.578 538.850, 941.066 573.500 C 940.553 608.150, 939.864 652.025, 939.535 671 C 939.207 689.975, 938.512 730.475, 937.993 761 C 937.473 791.525, 936.798 836.300, 936.491 860.500 C 936.185 884.700, 935.731 915.975, 935.482 930 C 935.233 944.025, 934.805 969, 934.530 985.500 C 934.255 1002, 933.786 1031.250, 933.488 1050.500 C 933.190 1069.750, 932.740 1097.650, 932.489 1112.500 C 932.237 1127.350, 931.575 1167.400, 931.016 1201.500 C 930.458 1235.600, 929.761 1280.375, 929.467 1301 C 929.172 1321.625, 928.567 1365.522, 928.120 1398.548 C 927.674 1431.574, 927.685 1463.749, 928.144 1470.048 C 928.603 1476.347, 929.234 1483.525, 929.546 1486 C 929.858 1488.475, 930.515 1491.400, 931.006 1492.500 C 931.497 1493.600, 932.618 1496.714, 933.496 1499.421 C 934.374 1502.127, 936.527 1506.740, 938.280 1509.671 C 940.033 1512.602, 941.814 1515, 942.237 1515 C 942.661 1515, 944.532 1514.183, 946.396 1513.184 C 949.301 1511.627, 949.632 1511.091, 948.715 1509.434 C 948.127 1508.370, 947.085 1507.050, 946.401 1506.500 C 945.717 1505.950, 944.222 1503.799, 943.079 1501.720 C 941.935 1499.640, 941 1497.079, 941 1496.029 C 941 1494.978, 940.550 1493.840, 940 1493.500 C 939.450 1493.160, 939 1491.874, 939 1490.641 C 939 1489.408, 938.594 1487.973, 938.098 1487.450 C 937.602 1486.928, 936.936 1482.900, 936.618 1478.500 C 936.301 1474.100, 935.886 1468.700, 935.697 1466.500 C 935.507 1464.300, 935.700 1447.875, 936.124 1430 C 936.549 1412.125, 937.155 1379.050, 937.471 1356.500 C 937.788 1333.950, 938.479 1287.825, 939.008 1254 C 939.536 1220.175, 940.206 1179, 940.496 1162.500 C 940.786 1146, 941.480 1102.800, 942.037 1066.500 C 942.595 1030.200, 943.505 975.075, 944.060 944 C 944.615 912.925, 945.523 857.350, 946.077 820.500 C 946.632 783.650, 947.500 727.400, 948.006 695.500 C 948.513 663.600, 949.161 620.175, 949.446 599 C 949.731 577.825, 950.196 551.725, 950.479 541 C 950.763 530.275, 951.235 501.025, 951.527 476 C 951.820 450.975, 952.288 420.375, 952.567 408 C 952.845 395.625, 953.499 358.050, 954.019 324.500 C 954.540 290.950, 955.393 234.699, 955.916 199.497 C 956.439 164.296, 957.151 130.096, 957.498 123.497 C 957.846 116.899, 958.548 109.925, 959.060 108 C 959.571 106.075, 959.991 103.064, 959.994 101.310 C 959.997 99.555, 961.184 94.830, 962.631 90.810 C 964.078 86.789, 966.553 81.619, 968.131 79.320 C 969.709 77.021, 971 74.658, 971 74.070 C 971 73.481, 969.940 73, 968.644 73 C 966.951 73, 965.121 74.560, 962.144 78.541 M 973.037 79.945 C 970.817 83.215, 969 86.281, 969 86.758 C 969 87.235, 967.950 89.847, 966.667 92.563 C 965.384 95.278, 963.789 100.875, 963.123 105 C 962.457 109.125, 961.489 114.525, 960.972 117 C 960.455 119.475, 959.774 129.150, 959.458 138.500 C 959.143 147.850, 958.447 186.775, 957.911 225 C 957.375 263.225, 956.530 321.500, 956.032 354.500 C 955.534 387.500, 954.870 428.450, 954.556 445.500 C 954.242 462.550, 953.320 518.125, 952.507 569 C 951.694 619.875, 950.800 675.450, 950.518 692.500 C 950.237 709.550, 949.577 752.300, 949.051 787.500 C 948.525 822.700, 947.826 869.275, 947.497 891 C 947.168 912.725, 946.507 944.900, 946.028 962.500 C 945.549 980.100, 945.096 1015.848, 945.020 1041.940 C 944.945 1068.033, 944.675 1089.716, 944.422 1090.126 C 944.169 1090.536, 943.501 1121.162, 942.938 1158.185 C 942.375 1195.208, 941.510 1252.050, 941.015 1284.500 C 940.521 1316.950, 939.866 1362.850, 939.560 1386.500 C 939.255 1410.150, 938.794 1434.225, 938.536 1440 C 938.278 1445.775, 938.499 1455.900, 939.027 1462.500 C 939.555 1469.100, 940.240 1476.525, 940.550 1479 C 940.860 1481.475, 941.508 1484.400, 941.991 1485.500 C 942.474 1486.600, 943.866 1490.425, 945.084 1494 C 946.303 1497.575, 948.339 1502.150, 949.610 1504.166 C 950.880 1506.182, 952.333 1508.087, 952.838 1508.400 C 953.343 1508.712, 955.162 1508.267, 956.879 1507.411 C 958.645 1506.529, 960 1505.070, 960 1504.049 C 960 1503.057, 959.369 1501.721, 958.597 1501.080 C 957.825 1500.440, 956.087 1497.572, 954.734 1494.708 C 953.381 1491.844, 951.542 1487.025, 950.647 1484 C 949.752 1480.975, 948.548 1475.125, 947.971 1471 C 947.287 1466.098, 947.114 1444.275, 947.474 1408 C 947.777 1377.475, 948.254 1348, 948.534 1342.500 C 948.814 1337, 949.255 1315.400, 949.513 1294.500 C 949.772 1273.600, 950.437 1229.725, 950.991 1197 C 951.545 1164.275, 952.240 1122.875, 952.534 1105 C 952.828 1087.125, 953.485 1047.075, 953.995 1016 C 954.505 984.925, 955.376 930.025, 955.930 894 C 956.485 857.975, 957.392 803.300, 957.947 772.500 C 958.502 741.700, 959.410 688.600, 959.965 654.500 C 960.519 620.400, 961.196 577.875, 961.468 560 C 961.740 542.125, 962.191 516.925, 962.470 504 C 962.749 491.075, 963.227 462.950, 963.532 441.500 C 963.837 420.050, 964.279 389.675, 964.515 374 C 964.750 358.325, 965.183 333.125, 965.477 318 C 965.771 302.875, 966.235 274.750, 966.507 255.500 C 966.779 236.250, 967.273 205.200, 967.604 186.500 C 967.935 167.800, 968.578 143.275, 969.033 132 C 969.488 120.725, 970.272 109.025, 970.776 106 C 971.279 102.975, 972.928 96.900, 974.440 92.500 C 975.952 88.100, 977.728 83.825, 978.388 83 C 979.047 82.175, 980.205 80.263, 980.962 78.750 C 981.719 77.237, 982.738 76, 983.228 76 C 983.718 76, 983.840 75.550, 983.500 75 C 983.160 74.450, 981.575 74, 979.978 74 C 977.552 74, 976.411 74.977, 973.037 79.945 M 985.784 78.409 C 984.136 80.659, 981.970 84.300, 980.971 86.500 C 979.973 88.700, 978.364 92.300, 977.396 94.500 C 976.427 96.700, 975.259 100.525, 974.800 103 C 974.340 105.475, 973.513 110.425, 972.961 114 C 972.409 117.575, 971.549 135.125, 971.050 153 C 970.551 170.875, 969.874 202.825, 969.545 224 C 969.217 245.175, 968.526 286.350, 968.009 315.500 C 967.493 344.650, 966.808 385.375, 966.487 406 C 966.167 426.625, 965.709 453.400, 965.471 465.500 C 965.233 477.600, 964.509 520.125, 963.864 560 C 963.218 599.875, 962.675 634.075, 962.658 636 C 962.641 637.925, 962.279 661.325, 961.854 688 C 961.428 714.675, 960.828 750.675, 960.520 768 C 960.211 785.325, 959.729 813.450, 959.447 830.500 C 959.166 847.550, 958.496 889.625, 957.958 924 C 957.421 958.375, 956.757 1000, 956.482 1016.500 C 956.208 1033, 955.528 1074.625, 954.972 1109 C 954.416 1143.375, 953.315 1209.975, 952.525 1257 C 951.736 1304.025, 950.732 1361.850, 950.295 1385.500 C 949.858 1409.150, 949.577 1435.475, 949.672 1444 C 949.766 1452.525, 950.401 1463.775, 951.082 1469 C 951.763 1474.225, 953.149 1480.272, 954.160 1482.438 C 955.172 1484.604, 956 1486.927, 956 1487.602 C 956 1488.276, 957.391 1491.545, 959.091 1494.867 C 960.791 1498.188, 962.727 1501.359, 963.394 1501.912 C 964.235 1502.610, 965.586 1502.322, 967.803 1500.974 C 969.561 1499.904, 971 1498.403, 971 1497.637 C 971 1496.871, 970.303 1495.666, 969.450 1494.959 C 968.598 1494.252, 966.979 1491.649, 965.852 1489.176 C 964.725 1486.702, 963.154 1482.388, 962.359 1479.589 C 961.565 1476.790, 960.516 1470.675, 960.029 1466 C 959.542 1461.325, 959.037 1453.675, 958.907 1449 C 958.776 1444.325, 959.190 1408.550, 959.827 1369.500 C 960.463 1330.450, 961.229 1286.575, 961.529 1272 C 961.829 1257.425, 962.529 1216.475, 963.084 1181 C 963.640 1145.525, 964.506 1091.525, 965.010 1061 C 965.514 1030.475, 966.165 990.200, 966.458 971.500 C 966.750 952.800, 967.239 923.550, 967.543 906.500 C 967.848 889.450, 968.534 848.950, 969.067 816.500 C 969.600 784.050, 970.481 732.525, 971.023 702 C 971.565 671.475, 972.432 621.975, 972.949 592 C 973.466 562.025, 974.346 508.700, 974.904 473.500 C 975.463 438.300, 976.170 397.800, 976.476 383.500 C 976.782 369.200, 977.476 324.943, 978.018 285.151 C 978.561 245.359, 979.186 212.508, 979.408 212.149 C 979.630 211.790, 979.904 189.897, 980.017 163.498 C 980.130 137.099, 980.643 113.025, 981.157 110 C 981.672 106.975, 982.553 102.250, 983.116 99.500 C 983.679 96.750, 984.610 93.375, 985.186 92 C 985.762 90.625, 986.631 88.719, 987.117 87.764 C 987.603 86.809, 988 85.501, 988 84.858 C 988 84.215, 989.107 82.237, 990.460 80.463 C 991.814 78.689, 993.051 76.676, 993.210 75.990 C 993.370 75.303, 992.439 74.647, 991.141 74.530 C 989.408 74.374, 987.987 75.403, 985.784 78.409 M 1009.963 80.180 C 1009.123 81.020, 1007.722 83.460, 1006.849 85.603 C 1005.976 87.747, 1004.753 91.107, 1004.131 93.071 C 1003.418 95.322, 1003.059 104.194, 1003.160 117.071 C 1003.248 128.307, 1003.502 136.037, 1003.723 134.250 C 1003.989 132.106, 1004.671 131, 1005.726 131 C 1007.177 131, 1007.258 134.645, 1006.604 170.250 C 1006.207 191.838, 1005.698 220.300, 1005.473 233.500 C 1005.248 246.700, 1004.803 272.350, 1004.485 290.500 C 1004.167 308.650, 1003.464 350.050, 1002.922 382.500 C 1002.381 414.950, 1001.507 465.125, 1000.981 494 C 1000.454 522.875, 999.584 570.575, 999.046 600 C 998.507 629.425, 997.620 680.500, 997.073 713.500 C 996.526 746.500, 995.855 777.325, 995.583 782 C 995.310 786.675, 994.797 819.975, 994.443 856 C 994.089 892.025, 993.685 925.550, 993.546 930.500 C 993.406 935.450, 992.997 957.275, 992.636 979 C 992.276 1000.725, 991.538 1038.300, 990.998 1062.500 C 990.457 1086.700, 989.757 1124.725, 989.441 1147 C 989.125 1169.275, 988.454 1212.475, 987.950 1243 C 987.446 1273.525, 986.608 1324.600, 986.088 1356.500 C 985.568 1388.400, 984.818 1419.563, 984.421 1425.750 C 984.024 1431.938, 983.279 1437, 982.766 1437 C 982.196 1437, 981.963 1416.401, 982.166 1384.057 C 982.350 1354.938, 982.128 1332.101, 981.674 1333.307 C 981.220 1334.513, 980.547 1362.050, 980.179 1394.500 C 979.811 1426.950, 979.593 1458.249, 979.695 1464.052 C 979.835 1472.030, 980.400 1475.995, 982.012 1480.302 C 983.184 1483.436, 984.535 1486, 985.013 1486 C 985.491 1486, 986.197 1485.490, 986.583 1484.866 C 986.968 1484.243, 987.894 1480.530, 988.640 1476.616 C 989.619 1471.488, 990.009 1459.583, 990.038 1434 C 990.060 1414.475, 990.522 1373.975, 991.065 1344 C 991.607 1314.025, 992.499 1264.750, 993.047 1234.500 C 993.595 1204.250, 994.497 1152.500, 995.052 1119.500 C 995.607 1086.500, 996.138 1058.375, 996.232 1057 C 996.326 1055.625, 996.768 1030.425, 997.215 1001 C 997.661 971.575, 998.470 923.425, 999.011 894 C 999.553 864.575, 1000.461 815.525, 1001.029 785 C 1001.596 754.475, 1002.459 707, 1002.947 679.500 C 1003.434 652, 1004.302 599.575, 1004.875 563 C 1005.449 526.425, 1006.153 485.700, 1006.439 472.500 C 1006.726 459.300, 1007.204 429.600, 1007.501 406.500 C 1007.799 383.400, 1008.273 357.525, 1008.554 349 C 1008.835 340.475, 1009.499 306.725, 1010.029 274 C 1010.560 241.275, 1011.216 197.850, 1011.488 177.500 C 1011.760 157.150, 1012.485 134.875, 1013.099 128 C 1013.713 121.125, 1013.993 108.975, 1013.722 101 C 1013.451 93.025, 1012.838 84.734, 1012.360 82.576 C 1011.580 79.057, 1011.333 78.810, 1009.963 80.180 M 993.020 85.250 C 992.348 87.037, 991.394 89.513, 990.899 90.750 C 990.405 91.987, 989.588 94.013, 989.083 95.250 C 988.579 96.487, 987.859 98.625, 987.482 100 C 987.105 101.375, 986.355 104.975, 985.815 108 C 985.276 111.025, 984.447 125.875, 983.973 141 C 983.500 156.125, 982.643 195.500, 982.070 228.500 C 981.496 261.500, 980.778 301.325, 980.473 317 C 980.169 332.675, 979.458 377, 978.894 415.500 C 978.330 454, 977.460 510.250, 976.960 540.500 C 976.460 570.750, 975.829 607.875, 975.557 623 C 975.285 638.125, 974.593 681.550, 974.020 719.500 C 973.448 757.450, 972.744 800.200, 972.457 814.500 C 972.170 828.800, 971.496 865.925, 970.960 897 C 970.424 928.075, 969.551 978.475, 969.019 1009 C 968.487 1039.525, 967.610 1091.725, 967.071 1125 C 966.531 1158.275, 965.827 1198.550, 965.506 1214.500 C 965.185 1230.450, 964.456 1273.875, 963.886 1311 C 963.317 1348.125, 962.606 1395.986, 962.306 1417.359 C 961.918 1444.969, 962.106 1458.429, 962.952 1463.859 C 963.607 1468.061, 964.850 1473.975, 965.713 1477 C 966.576 1480.025, 968.171 1484.525, 969.258 1487 C 970.345 1489.475, 972.137 1492.772, 973.240 1494.327 C 974.611 1496.259, 975.571 1496.829, 976.272 1496.128 C 976.973 1495.427, 976.703 1494.216, 975.421 1492.301 C 974.390 1490.761, 972.523 1487.511, 971.273 1485.081 C 970.023 1482.650, 969 1479.808, 969 1478.765 C 969 1477.722, 968.476 1475.890, 967.837 1474.695 C 966.987 1473.107, 966.738 1459.026, 966.911 1422.510 C 967.042 1395.005, 967.318 1365.750, 967.524 1357.500 C 967.730 1349.250, 968.393 1314.600, 968.997 1280.500 C 969.601 1246.400, 970.518 1194.650, 971.034 1165.500 C 971.550 1136.350, 972.408 1087.525, 972.939 1057 C 973.471 1026.475, 974.157 988.675, 974.465 973 C 974.773 957.325, 975.688 901.750, 976.499 849.500 C 977.309 797.250, 978.221 741.675, 978.524 726 C 978.828 710.325, 979.502 672.300, 980.022 641.500 C 980.543 610.700, 981.197 569.750, 981.476 550.500 C 981.755 531.250, 982.229 502, 982.531 485.500 C 982.832 469, 983.519 429.625, 984.058 398 C 984.596 366.375, 985.467 316.425, 985.993 287 C 986.519 257.575, 987.402 207.625, 987.954 176 C 988.507 144.375, 989.378 114, 989.889 108.500 C 990.400 103, 991.579 95.800, 992.509 92.500 C 993.439 89.200, 994.432 85.487, 994.716 84.250 C 995.001 83.013, 995.010 82, 994.738 82 C 994.466 82, 993.693 83.463, 993.020 85.250 M 1002.667 139.667 C 1002.300 140.033, 1002 144.083, 1002 148.667 C 1002 153.556, 1002.413 157, 1003 157 C 1003.593 157, 1004 153.333, 1004 148 C 1004 143.050, 1003.850 139, 1003.667 139 C 1003.483 139, 1003.033 139.300, 1002.667 139.667 M 1001.750 165.583 C 1001.337 165.996, 1001.029 183.021, 1001.063 203.417 C 1001.105 227.874, 1001.450 239.693, 1002.076 238.129 C 1002.630 236.744, 1002.916 221.013, 1002.763 200.295 C 1002.618 180.791, 1002.163 165.170, 1001.750 165.583 M 1000.750 245.875 C 1000.337 247.731, 1000.029 253.131, 1000.063 257.875 C 1000.112 264.499, 1000.352 265.936, 1001.097 264.071 C 1001.631 262.735, 1001.940 257.335, 1001.784 252.071 C 1001.574 244.979, 1001.306 243.374, 1000.750 245.875 M 999.750 274.332 C 999.337 275.339, 999 292.192, 999 311.782 C 999 335.824, 999.329 347.071, 1000.013 346.387 C 1000.669 345.731, 1000.933 332.552, 1000.763 308.937 C 1000.618 288.897, 1000.163 273.324, 999.750 274.332 M 998.602 356.210 C 998.243 357.470, 997.665 380.212, 997.317 406.750 C 996.884 439.776, 997.012 455, 997.721 455 C 998.416 455, 998.906 438.458, 999.209 404.750 C 999.458 377.113, 999.570 354.370, 999.458 354.210 C 999.346 354.051, 998.960 354.951, 998.602 356.210 M 276 402.460 C 276 403.357, 277.105 405.195, 278.455 406.545 C 280.058 408.149, 282.052 409.005, 284.205 409.014 C 286.017 409.021, 288.501 409.296, 289.724 409.623 C 291.877 410.201, 291.957 410.683, 292.224 424.860 C 292.500 439.500, 292.500 439.500, 296 439.500 C 299.500 439.500, 299.500 439.500, 299.777 424.750 C 300.053 410, 300.053 410, 305.381 410 C 309.649 410, 311.234 409.513, 313.354 407.548 C 314.809 406.199, 316 404.651, 316 404.107 C 316 403.563, 315.663 402.923, 315.250 402.684 C 314.837 402.446, 305.837 401.931, 295.250 401.540 C 277.827 400.896, 276 400.983, 276 402.460 M 357 405.077 C 357 405.669, 358.315 407.469, 359.923 409.077 C 362.762 411.916, 363.158 412.006, 373.673 412.200 C 379.628 412.309, 385.767 412.352, 387.316 412.295 C 388.865 412.238, 391.002 411.403, 392.066 410.440 C 393.130 409.478, 394 407.919, 394 406.976 C 394 405.772, 392.884 405.077, 390.250 404.642 C 388.188 404.301, 379.863 404.017, 371.750 404.011 C 361.874 404.004, 357 404.356, 357 405.077 M 435 417.485 C 435 425.871, 435.345 429.171, 436.250 429.456 C 436.938 429.672, 443.317 430.097, 450.427 430.401 C 457.537 430.705, 463.763 431.363, 464.262 431.862 C 464.761 432.361, 465.019 433.834, 464.835 435.135 C 464.505 437.467, 464.329 437.502, 452.275 437.619 C 442.805 437.711, 439.489 438.105, 437.560 439.369 C 436.191 440.266, 434.585 441.907, 433.992 443.015 C 433.177 444.538, 433.229 445.128, 434.207 445.431 C 434.918 445.652, 443.251 446.087, 452.724 446.400 C 468.993 446.935, 470.004 446.861, 470.974 445.049 C 471.538 443.994, 471.993 439.164, 471.985 434.316 C 471.976 429.467, 471.627 424.962, 471.209 424.304 C 470.737 423.562, 466.097 422.850, 458.974 422.426 C 452.664 422.051, 446.375 421.689, 445 421.622 C 442.916 421.520, 442.500 421.001, 442.500 418.500 C 442.500 415.500, 442.500 415.500, 454.184 415.408 C 463.332 415.336, 466.426 414.951, 468.434 413.635 C 469.845 412.710, 471 411.050, 471 409.946 C 471 408.841, 470.438 407.763, 469.750 407.549 C 469.063 407.336, 460.962 406.879, 451.750 406.535 C 435 405.907, 435 405.907, 435 417.485 M 515.659 409.750 C 515.406 410.163, 514.872 418.889, 514.471 429.142 C 513.779 446.862, 513.835 447.810, 515.621 448.325 C 516.655 448.624, 523.588 449.171, 531.028 449.542 C 544.556 450.217, 544.556 450.217, 547.778 447.208 C 549.550 445.552, 551 443.703, 551 443.099 C 551 442.494, 549.538 441.980, 547.750 441.955 C 545.962 441.930, 541.350 441.698, 537.500 441.439 C 533.650 441.180, 528.587 440.722, 526.250 440.423 C 522 439.877, 522 439.877, 522 426.021 C 522 418.399, 521.727 411.452, 521.393 410.582 C 521.059 409.712, 519.736 409, 518.452 409 C 517.168 409, 515.911 409.337, 515.659 409.750 M 594 413.313 C 594 414.035, 595.250 415.824, 596.779 417.288 C 599.434 419.832, 600.179 419.979, 613.529 420.598 C 626.913 421.218, 627.616 421.152, 630.250 419.050 C 631.763 417.843, 633 416.053, 633 415.072 C 633 413.601, 631.821 413.178, 626.250 412.652 C 622.538 412.301, 613.763 412.011, 606.750 412.007 C 596.887 412.002, 594 412.297, 594 413.313 M 357.530 419.952 C 357.206 420.475, 358.192 422.235, 359.721 423.864 C 362.449 426.770, 362.738 426.836, 375.546 427.467 C 387.857 428.073, 388.744 427.989, 391.296 425.982 C 392.783 424.812, 394 423.054, 394 422.074 C 394 420.578, 392.777 420.190, 386.349 419.647 C 382.141 419.291, 374.068 419, 368.408 419 C 362.749 419, 357.853 419.428, 357.530 419.952 M 594.476 430.337 C 594.155 432.077, 594.030 437.550, 594.197 442.500 C 594.500 451.500, 594.500 451.500, 598 451.500 C 601.500 451.500, 601.500 451.500, 601.792 443.750 C 602.084 436, 602.084 436, 606.792 436.124 C 609.381 436.193, 614.650 436.530, 618.500 436.874 C 625.500 437.500, 625.500 437.500, 625.500 445 C 625.500 452.500, 625.500 452.500, 629.250 452.810 C 633 453.121, 633 453.121, 633 441.683 C 633 433.728, 632.619 429.943, 631.750 429.254 C 631.063 428.709, 622.526 428.018, 612.779 427.718 C 595.058 427.174, 595.058 427.174, 594.476 430.337 M 357.545 434.928 C 357.150 435.566, 357.565 437.213, 358.466 438.589 C 359.367 439.964, 361.184 441.499, 362.502 442.001 C 363.821 442.502, 370.052 443.220, 376.348 443.597 C 387.136 444.242, 387.975 444.154, 390.898 442.073 C 392.604 440.858, 394 439.045, 394 438.043 C 394 436.765, 393.031 436.064, 390.750 435.690 C 388.962 435.397, 383.900 435.116, 379.500 435.067 C 375.100 435.017, 368.521 434.704, 364.881 434.372 C 360.348 433.958, 358.036 434.133, 357.545 434.928 M 996.486 465.750 C 996.085 466.712, 995.599 491.261, 995.406 520.302 C 995.212 549.342, 994.846 573.440, 994.592 573.852 C 994.337 574.263, 994.024 598.653, 993.896 628.050 C 993.768 657.448, 993.317 681.963, 992.893 682.529 C 992.469 683.094, 991.888 708.069, 991.600 738.029 C 991.313 767.988, 990.854 796.100, 990.579 800.500 C 990.271 805.446, 990.386 807.321, 990.881 805.413 C 991.321 803.715, 991.951 801.888, 992.282 801.353 C 992.613 800.818, 992.980 776.557, 993.099 747.440 C 993.218 718.323, 993.667 693.794, 994.097 692.930 C 994.526 692.067, 995.122 667.542, 995.421 638.430 C 995.719 609.319, 996.185 578.525, 996.456 570 C 996.727 561.475, 997.101 534.138, 997.287 509.250 C 997.474 484.363, 997.534 464, 997.420 464 C 997.307 464, 996.886 464.788, 996.486 465.750 M 910 799.500 C 909.966 806.650, 909.731 815.513, 909.478 819.196 C 909.224 822.879, 909.385 826.120, 909.835 826.398 C 910.285 826.676, 911.631 826.648, 912.826 826.335 C 914.850 825.806, 914.998 825.170, 914.965 817.133 C 914.945 812.385, 914.356 804.450, 913.655 799.500 C 912.955 794.550, 911.859 789.600, 911.221 788.500 C 910.296 786.905, 910.048 789.132, 910 799.500 M 990.042 842 C 989.952 859.325, 989.728 882.247, 989.544 892.938 C 989.361 903.628, 989.555 911.728, 989.977 910.938 C 990.399 910.147, 991.024 888.800, 991.367 863.500 C 991.720 837.454, 991.603 815.982, 991.098 814 C 990.510 811.696, 990.149 821.264, 990.042 842 M 910.200 830.200 C 909.392 831.008, 909 835.578, 909 844.200 C 909 851.240, 909.401 857, 909.891 857 C 910.380 857, 911.018 855.538, 911.307 853.750 C 911.596 851.962, 912.523 846.033, 913.367 840.574 C 914.211 835.115, 914.672 830.278, 914.391 829.824 C 914.111 829.371, 913.324 829, 912.641 829 C 911.958 829, 910.860 829.540, 910.200 830.200 M 921.626 838.250 C 921.400 839.487, 920.445 844.550, 919.505 849.500 C 918.564 854.450, 916.716 861.729, 915.397 865.676 C 913.096 872.566, 913 873.969, 913 900.819 C 913 925.399, 913.192 928.860, 914.582 929.393 C 915.452 929.727, 917.477 930, 919.082 930 C 922 930, 922 930, 922.102 899.250 C 922.159 882.337, 922.311 861.975, 922.440 854 C 922.570 846.025, 923.022 838.712, 923.445 837.750 C 923.913 836.684, 923.788 836, 923.126 836 C 922.528 836, 921.853 837.013, 921.626 838.250 M 908.625 884.125 C 908.281 885.844, 908 896.734, 908 908.325 C 908 922.461, 908.331 929.069, 909.006 928.394 C 909.583 927.817, 910.291 917.488, 910.666 904.194 C 911.109 888.458, 910.987 881, 910.285 881 C 909.716 881, 908.969 882.406, 908.625 884.125 M 988.030 961.096 C 988.014 983.424, 987.775 1005.924, 987.500 1011.096 C 987.116 1018.302, 987.239 1019.799, 988.025 1017.500 C 988.626 1015.743, 989.312 995.835, 989.682 969.440 C 990.138 936.825, 990.001 923.845, 989.187 922.440 C 988.339 920.979, 988.053 930.515, 988.030 961.096 M 915.411 944.519 C 912.322 945.874, 912.322 945.874, 911.664 967.687 C 911.301 979.684, 910.996 1002.775, 910.986 1019 C 910.975 1035.225, 910.548 1070.775, 910.036 1098 C 909.525 1125.225, 908.410 1197.900, 907.558 1259.500 C 906.706 1321.100, 905.575 1392.200, 905.043 1417.500 C 904.512 1442.800, 904.270 1468.225, 904.507 1474 C 904.743 1479.775, 905.461 1488.775, 906.101 1494 C 906.742 1499.225, 907.572 1503.950, 907.947 1504.500 C 908.322 1505.050, 909.688 1508.763, 910.983 1512.750 C 912.278 1516.737, 913.712 1520, 914.169 1520 C 914.626 1520, 915.002 1520.563, 915.005 1521.250 C 915.008 1521.938, 916.033 1523.779, 917.284 1525.342 C 919.559 1528.185, 919.559 1528.185, 923.255 1526.342 C 925.288 1525.329, 926.962 1523.933, 926.975 1523.240 C 926.989 1522.547, 926.063 1521.197, 924.919 1520.240 C 923.774 1519.283, 921.956 1516.796, 920.879 1514.713 C 919.803 1512.630, 918.045 1508.130, 916.974 1504.713 C 915.902 1501.296, 915.017 1496.700, 915.007 1494.500 C 914.997 1492.300, 914.507 1488.766, 913.919 1486.647 C 913.151 1483.880, 913.290 1455.689, 914.412 1386.647 C 915.271 1333.766, 916.202 1275.650, 916.480 1257.500 C 916.758 1239.350, 917.441 1194.350, 917.998 1157.500 C 918.554 1120.650, 919.208 1079.250, 919.452 1065.500 C 919.695 1051.750, 920.227 1020.700, 920.636 996.500 C 921.044 972.300, 921.434 950.925, 921.502 949 C 921.570 947.075, 921.437 944.938, 921.206 944.250 C 920.975 943.563, 920.272 943.037, 919.643 943.082 C 919.014 943.126, 917.110 943.773, 915.411 944.519 M 907.654 963.250 C 907.341 965.038, 906.801 988.550, 906.454 1015.500 C 906.107 1042.450, 905.686 1073.275, 905.518 1084 C 905.350 1094.725, 904.719 1138.825, 904.115 1182 C 903.511 1225.175, 902.802 1270.625, 902.539 1283 C 902.277 1295.375, 901.775 1329.350, 901.424 1358.500 C 901.074 1387.650, 900.654 1411.725, 900.490 1412 C 900.327 1412.275, 900.059 1437.025, 899.896 1467 C 899.598 1521.500, 899.598 1521.500, 902.429 1526.500 C 903.986 1529.250, 905.909 1532.247, 906.703 1533.160 C 908.043 1534.701, 908.431 1534.669, 912.074 1532.725 C 914.233 1531.572, 916 1530.324, 916 1529.951 C 916 1529.578, 914.929 1528.199, 913.619 1526.886 C 912.310 1525.574, 910.285 1522.799, 909.119 1520.720 C 907.954 1518.640, 907 1516.272, 907 1515.456 C 907 1514.640, 906.605 1513.191, 906.123 1512.236 C 905.640 1511.281, 904.628 1508.700, 903.873 1506.500 C 902.795 1503.361, 902.500 1493.570, 902.500 1461 C 902.500 1438.175, 902.788 1400.375, 903.140 1377 C 903.492 1353.625, 904.048 1315.825, 904.375 1293 C 904.702 1270.175, 905.202 1239.575, 905.486 1225 C 905.770 1210.425, 906.253 1179.825, 906.560 1157 C 906.866 1134.175, 907.297 1104.025, 907.516 1090 C 907.736 1075.975, 908.232 1040.987, 908.618 1012.250 C 909.005 983.513, 909.074 960, 908.772 960 C 908.470 960, 907.967 961.462, 907.654 963.250 M 986.750 1030.583 C 986.337 1030.996, 986.053 1048.246, 986.117 1068.917 C 986.197 1094.792, 986.513 1104.818, 987.130 1101.100 C 987.623 1098.131, 987.908 1080.880, 987.763 1062.767 C 987.618 1044.653, 987.163 1030.170, 986.750 1030.583 M 985.750 1115.390 C 985.337 1118.079, 985.041 1122.129, 985.090 1124.390 C 985.180 1128.500, 985.180 1128.500, 986.138 1125.176 C 986.665 1123.348, 986.961 1119.298, 986.798 1116.176 C 986.500 1110.500, 986.500 1110.500, 985.750 1115.390 M 984.761 1139.500 C 984.355 1141.700, 984.058 1159.025, 984.101 1178 C 984.154 1200.837, 984.492 1211.422, 985.103 1209.311 C 985.612 1207.550, 985.908 1190.307, 985.763 1170.811 C 985.618 1151.390, 985.167 1137.300, 984.761 1139.500 M 983.642 1223.717 C 983.298 1226.348, 982.717 1248.638, 982.351 1273.250 C 981.890 1304.257, 982.008 1318, 982.736 1318 C 983.449 1318, 983.917 1302.217, 984.196 1268.750 C 984.422 1241.662, 984.530 1219.373, 984.437 1219.217 C 984.344 1219.061, 983.986 1221.086, 983.642 1223.717 M 898.625 1535.125 C 898.281 1536.844, 898 1538.655, 898 1539.151 C 898 1539.646, 899.350 1539.353, 901 1538.500 C 902.650 1537.647, 904 1536.542, 904 1536.046 C 904 1535.549, 903.293 1534.436, 902.429 1533.571 C 901.564 1532.707, 900.496 1532, 900.054 1532 C 899.612 1532, 898.969 1533.406, 898.625 1535.125"
        stroke="none" fill-rule="evenodd" />
</svg>