<?xml version="1.0" standalone="no"?>
<!DOCTYPE svg PUBLIC "-//W3C//DTD SVG 20010904//EN"
 "http://www.w3.org/TR/2001/REC-SVG-20010904/DTD/svg10.dtd">
<svg version="1.0" xmlns="http://www.w3.org/2000/svg"
 width="900.000000pt" height="1434.000000pt" viewBox="0 0 900.000000 1434.000000"
 preserveAspectRatio="xMidYMid meet">
<metadata>
Created by potrace 1.10, written by Peter Selinger 2001-2011
</metadata>
<g transform="translate(0.000000,1434.000000) scale(0.100000,-0.100000)"
fill="#000000" stroke="none">
<path d="M155 14273 c-34 -8 -81 -50 -99 -87 -15 -32 -16 -557 -16 -7029 0
-4493 3 -7005 10 -7021 15 -41 62 -83 105 -95 58 -16 8602 -16 8656 0 46 14
91 60 113 117 15 39 16 562 16 6994 0 6460 -1 6956 -17 6998 -19 53 -54 93
-98 115 -30 13 -474 15 -4342 14 -2369 -1 -4317 -4 -4328 -6z m8671 -78 c16
-12 32 -39 40 -65 19 -62 21 -13879 2 -13944 -14 -51 -22 -62 -61 -81 -27 -13
-502 -15 -4328 -15 -3996 0 -4299 1 -4326 17 -16 9 -37 30 -46 46 -16 27 -17
505 -17 7002 l0 6974 21 35 c11 19 32 39 47 45 18 6 1525 9 4334 8 l4307 -2
27 -20z"/>
<path d="M2574 10875 c-17 -42 73 -106 139 -97 43 5 39 17 38 -138 -1 -90 2
-108 18 -127 25 -30 100 -33 102 -5 0 9 2 73 2 142 l2 125 51 1 c81 1 156 61
129 103 -4 7 -87 11 -241 11 -200 0 -235 -2 -240 -15z m340 -36 c72 -1 50 -17
-25 -18 -53 -1 -58 -8 -60 -74 l-1 -42 -10 45 c-13 59 -23 70 -67 70 -20 0
-47 4 -61 8 -19 5 -10 8 40 13 36 3 78 5 94 3 16 -2 56 -4 90 -5z"/>
<path d="M3467 10884 c-17 -17 -4 -46 32 -70 39 -25 42 -25 193 -22 152 3 155
3 192 31 22 17 36 36 34 45 -3 15 -28 17 -224 20 -121 1 -223 -1 -227 -4z
m316 -43 c23 -1 36 -5 32 -11 -8 -13 -252 -13 -260 -1 -6 11 60 17 140 15 28
-1 67 -2 88 -3z"/>
<path d="M4287 10883 c-13 -12 -8 -221 6 -230 6 -4 79 -6 161 -4 116 2 150 0
157 -10 17 -29 -9 -36 -114 -31 -89 4 -109 2 -148 -16 -55 -25 -72 -43 -67
-74 l3 -23 204 -3 c254 -3 241 -10 241 133 0 137 5 134 -180 137 -180 4 -195
21 -25 28 130 6 163 15 188 53 28 43 11 47 -213 47 -114 0 -210 -3 -213 -7z
m316 -43 c15 0 27 -4 27 -10 0 -5 -54 -11 -127 -12 l-128 -3 0 -44 0 -43 139
-4 c142 -4 166 -10 166 -45 0 -25 -32 -25 -55 1 -16 18 -31 20 -152 20 l-133
0 0 69 0 70 43 4 c23 2 76 3 117 1 41 -2 87 -3 103 -4z m74 -256 c11 -28 -11
-33 -122 -25 l-110 8 91 2 c68 1 95 5 104 16 16 19 29 19 37 -1z"/>
<path d="M5128 10883 c-2 -4 -4 -93 -3 -198 l0 -190 174 -3 175 -2 33 32 c37
36 46 87 16 89 -10 1 -76 2 -148 3 l-130 1 0 135 0 135 -57 3 c-31 2 -58 -1
-60 -5z m89 -305 c14 -16 14 -18 -1 -24 -34 -13 -39 9 -30 143 l9 128 3 -115
c2 -88 6 -118 19 -132z"/>
<path d="M5945 10880 c-11 -19 6 -49 39 -70 30 -18 50 -20 176 -20 111 0 150
4 176 16 42 20 60 49 43 70 -9 11 -51 14 -220 14 -129 0 -210 -4 -214 -10z
m350 -50 c-4 -6 -60 -10 -136 -10 -79 0 -129 4 -129 10 0 6 52 10 136 10 87 0
133 -4 129 -10z"/>
<path d="M3465 10749 c-13 -21 6 -57 41 -78 31 -19 51 -21 177 -21 123 0 146
3 174 20 37 22 68 64 58 80 -9 14 -441 14 -450 -1z m312 -29 c27 0 42 -4 38
-10 -8 -13 -252 -13 -260 0 -6 10 99 19 149 13 16 -1 48 -3 73 -3z"/>
<path d="M5954 10747 c-2 -7 -3 -67 -2 -133 l3 -119 42 -3 c56 -4 79 27 70 93
-8 57 3 63 108 56 l80 -6 -3 -53 c-5 -67 14 -92 69 -92 61 0 69 16 69 135 0
81 -3 107 -16 119 -13 14 -47 16 -215 16 -155 0 -201 -3 -205 -13z m374 -43
c20 -14 22 -22 18 -81 -6 -72 -8 -78 -31 -70 -10 4 -15 19 -15 45 0 22 -5 53
-11 71 l-11 31 -113 0 c-134 0 -145 -6 -145 -80 0 -27 -4 -52 -10 -55 -6 -4
-10 6 -10 22 0 15 -3 44 -6 64 -11 63 5 69 169 69 113 0 147 -3 165 -16z"/>
<path d="M3467 10604 c-16 -16 -4 -43 34 -77 l41 -37 138 0 138 0 52 41 c32
25 50 47 48 57 -3 15 -27 17 -224 20 -121 1 -223 -1 -227 -4z m206 -41 c-13
-2 -33 -2 -45 0 -13 2 -3 4 22 4 25 0 35 -2 23 -4z"/>
</g>
</svg>
