<svg fill="#000000" xmlns="http://www.w3.org/2000/svg" viewBox="0 0 30 30" width="30px" height="30px"><path d="M13.324 16L13.127 18 16.873 18 16.676 16zM18.508 18L21.404 18 21.106 16 18.31 16zM17.267 22L17.07 20 12.93 20 12.733 22zM11.296 20L8.298 20 8 22 11.099 22zM11.492 18L11.69 16 8.894 16 8.596 18zM18.704 20L18.901 22 22 22 21.702 20z"/><path fill="none" stroke="#000000" stroke-linecap="round" stroke-linejoin="round" stroke-miterlimit="10" stroke-width="2" d="M26 25L4 25 4 24 6 13 24 13 26 24zM8 9L22 9M10 5L20 5"/></svg>