<?xml version="1.0" encoding="UTF-8"?>
<svg viewBox="0 0 254.58 253.5" xmlns="http://www.w3.org/2000/svg">
<path d="m127.31 253 35.476-199.52c33.815 0 44.481 3.708 46.021 18.843 0 0 22.684-8.458 34.125-25.636-44.646-20.688-89.505-21.621-89.505-21.621l-26.176 31.882 0.059-4e-3 -26.176-31.883s-44.86 0.934-89.5 21.622c11.431 17.178 34.124 25.636 34.124 25.636 1.549-15.136 12.202-18.844 45.79-18.868l35.762 199.55"/>
<path d="M127.292 15.86c36.09-.276 77.399 5.583 119.687 24.014 5.652-10.173 7.105-14.669 7.105-14.669C207.857 6.916 164.566.657 127.287.5 90.01.657 46.721 6.917.5 25.205c0 0 2.062 5.538 7.1 14.669 42.28-18.431 83.596-24.29 119.687-24.014h.005"/>
</svg>
