<?xml version="1.0" standalone="no"?>
<!DOCTYPE svg PUBLIC "-//W3C//DTD SVG 20010904//EN"
 "http://www.w3.org/TR/2001/REC-SVG-20010904/DTD/svg10.dtd">
<svg version="1.0" xmlns="http://www.w3.org/2000/svg"
 width="573.000000pt" height="801.000000pt" viewBox="0 0 573.000000 801.000000"
 preserveAspectRatio="xMidYMid meet">
<metadata>
Created by potrace 1.10, written by Peter Selinger 2001-2011
</metadata>
<g transform="translate(0.000000,801.000000) scale(0.100000,-0.100000)"
fill="#000000" stroke="none">
<path d="M679 7493 c-1 -10 0 -33 1 -50 1 -18 -1 -37 -5 -43 -4 -6 -7 -88 -7
-183 0 -102 -5 -175 -10 -178 -14 -9 -10 -266 5 -299 3 -8 5 -148 3 -310 -1
-162 -6 -817 -10 -1455 -5 -648 -12 -1164 -17 -1170 -12 -12 -12 -58 0 -70 5
-6 12 -448 16 -1030 5 -784 10 -1026 20 -1044 7 -14 15 -19 18 -13 6 8 8 1396
7 5345 0 338 -3 517 -10 517 -5 0 -10 -8 -11 -17z"/>
<path d="M630 6515 c0 -8 5 -15 10 -15 6 0 10 7 10 15 0 8 -4 15 -10 15 -5 0
-10 -7 -10 -15z"/>
<path d="M1640 6487 c0 -25 34 -46 80 -49 l44 -3 -3 -88 -3 -88 34 3 33 3 -4
88 -3 87 49 0 c37 0 55 5 67 19 32 35 12 41 -145 41 -118 0 -149 -3 -149 -13z"/>
<path d="M2240 6486 c0 -32 42 -46 133 -46 84 0 123 10 139 34 14 22 -7 26
-138 26 -110 0 -134 -3 -134 -14z"/>
<path d="M2812 6488 c-16 -16 -16 -114 1 -125 6 -4 53 -8 104 -8 95 0 109 -4
100 -30 -5 -12 -23 -15 -86 -15 -87 0 -131 -11 -131 -34 0 -22 16 -24 145 -17
l120 6 3 44 c6 88 4 91 -97 91 -97 0 -121 5 -121 25 0 19 50 28 112 20 45 -6
57 -4 81 15 15 12 25 26 22 31 -9 14 -239 11 -253 -3z"/>
<path d="M3364 6487 c-2 -7 -3 -60 -2 -118 l3 -104 105 -6 c122 -8 150 -1 150
37 l0 27 -80 -7 c-119 -11 -122 -9 -120 77 3 107 3 107 -25 107 -14 0 -28 -6
-31 -13z"/>
<path d="M3920 6486 c0 -32 42 -46 135 -46 93 0 135 14 135 46 0 11 -24 14
-135 14 -111 0 -135 -3 -135 -14z"/>
<path d="M2242 6396 c-3 -5 5 -18 18 -28 18 -15 40 -18 119 -18 99 0 139 12
129 40 -3 11 -34 14 -132 14 -70 1 -130 -3 -134 -8z"/>
<path d="M3927 6393 c-4 -3 -7 -35 -7 -70 l0 -63 29 0 c28 0 30 3 33 43 l3 42
73 3 72 3 0 -46 c0 -46 0 -46 33 -43 l32 3 -3 55 c-1 30 -4 61 -7 68 -3 9 -38
12 -128 12 -68 0 -127 -3 -130 -7z"/>
<path d="M2240 6302 c0 -5 6 -16 13 -25 11 -15 28 -17 132 -15 116 3 120 4
123 26 3 22 3 22 -132 22 -75 0 -136 -4 -136 -8z"/>
<path d="M630 6200 c0 -16 5 -30 10 -30 6 0 10 14 10 30 0 17 -4 30 -10 30 -5
0 -10 -13 -10 -30z"/>
<path d="M4840 1572 c-155 -9 -688 -11 -2168 -10 -1079 2 -1962 0 -1962 -4 0
-16 48 -38 85 -38 41 0 117 -29 129 -49 4 -6 13 -8 19 -4 13 8 134 14 202 10
22 -1 848 -2 1836 -2 1304 0 1800 3 1810 11 8 6 34 14 58 18 24 4 57 14 75 23
21 11 51 16 95 14 58 -2 91 9 91 29 0 14 -65 15 -270 2z"/>
</g>
</svg>
